<?xml version="1.0" encoding="utf-8"?>
<!-- Generator: Adobe Illustrator 18.0.0, SVG Export Plug-In . SVG Version: 6.00 Build 0)  -->
<!DOCTYPE svg PUBLIC "-//W3C//DTD SVG 1.1//EN" "http://www.w3.org/Graphics/SVG/1.1/DTD/svg11.dtd">
<svg version="1.1" id="Layer_1" xmlns="http://www.w3.org/2000/svg" xmlns:xlink="http://www.w3.org/1999/xlink" x="0px" y="0px"
	 viewBox="-81.7 -13.3 196.6 67.1" enable-background="new -81.7 -13.3 196.6 67.1" xml:space="preserve">
<g>
	<path fill="#0071CE" d="M-77.1,38.5l0-0.4l0.4,0c0.3,0,0.4-0.1,0.4-0.2v-2.5h-3v2.5c0,0.1,0.1,0.1,0.4,0.2l0.4,0l0,0.4h-2.8l0-0.4
		l0.4,0c0.2,0,0.4-0.1,0.4-0.2v-5.3c0-0.1,0-0.1-0.4-0.2l-0.4,0l0-0.4h2.8l0,0.4l-0.4,0c-0.3,0-0.4,0.1-0.4,0.2v2.3h3v-2.3
		c0-0.1-0.1-0.1-0.4-0.2l-0.4,0l0-0.4h2.8l0,0.4l-0.4,0c-0.2,0-0.4,0.1-0.4,0.2v5.3c0,0.1,0,0.1,0.4,0.2l0.4,0l0,0.4H-77.1z"/>
	<path fill="#0071CE" d="M-70.5,38.6c-0.4,0-0.7-0.2-0.8-0.8h0c-0.4,0.4-0.8,0.8-1.3,0.8c-0.7,0-1.3-0.5-1.3-1.2
		c0-0.9,0.9-1.4,2.7-1.8v-0.1c0-1-0.4-1.3-1-1.3c-0.3,0-0.8,0.1-0.8,0.2c0,0,0.2,0.2,0.2,0.6c0,0.2-0.2,0.5-0.6,0.5
		c-0.3,0-0.6-0.2-0.6-0.5c0-0.6,1.2-1.3,2.1-1.3c1.2,0,1.7,0.5,1.6,2.1l-0.1,1.8c0,0.3,0,0.4,0.2,0.4c0.1,0,0.3-0.1,0.5-0.2l0.2,0.2
		C-69.7,38.3-70.2,38.6-70.5,38.6z M-71.3,36c-1.3,0.3-1.6,0.8-1.6,1.2c0,0.5,0.3,0.7,0.7,0.7c0.3,0,0.6-0.2,0.9-0.4L-71.3,36z"/>
	<path fill="#0071CE" d="M-65.7,38.6c-0.4,0-0.7-0.2-0.8-0.8h0c-0.4,0.4-0.8,0.8-1.3,0.8c-0.7,0-1.3-0.5-1.3-1.2
		c0-0.9,0.9-1.4,2.7-1.8v-0.1c0-1-0.4-1.3-1-1.3c-0.3,0-0.8,0.1-0.8,0.2c0,0,0.2,0.2,0.2,0.6c0,0.2-0.2,0.5-0.6,0.5
		c-0.3,0-0.6-0.2-0.6-0.5c0-0.6,1.2-1.3,2.1-1.3c1.2,0,1.7,0.5,1.6,2.1l-0.1,1.8c0,0.3,0,0.4,0.2,0.4c0.1,0,0.3-0.1,0.5-0.2l0.2,0.2
		C-64.8,38.3-65.3,38.6-65.7,38.6z M-66.5,36c-1.3,0.3-1.6,0.8-1.6,1.2c0,0.5,0.3,0.7,0.7,0.7c0.3,0,0.6-0.2,0.9-0.4L-66.5,36z"/>
	<path fill="#0071CE" d="M-62.5,38.6c-0.5,0-1.1-0.1-1.5-0.2l0-1.4h0.6l0.2,0.9c0.2,0.1,0.5,0.2,0.8,0.2c0.5,0,0.9-0.3,0.9-0.8
		c0-0.5-0.6-0.7-1.1-0.9c-0.7-0.3-1.4-0.6-1.4-1.5c0-0.8,0.6-1.4,1.8-1.4c0.5,0,0.8,0.1,1.1,0.2l0.4-0.1l0,1.5h-0.6l-0.2-0.9
		c-0.2-0.1-0.5-0.2-0.8-0.2c-0.5,0-0.8,0.3-0.8,0.7c0,0.5,0.4,0.6,1.1,0.9c0.7,0.3,1.5,0.6,1.5,1.5C-60.6,37.9-61.2,38.6-62.5,38.6z
		"/>
	<path fill="#0071CE" d="M-56,38.6c-0.8,0-1.4-0.1-1.9-0.3l-0.1-1.9h0.6l0.5,1.5c0.3,0.1,0.8,0.3,1.2,0.2c0.9,0,1.3-0.6,1.3-1.1
		c0-0.9-0.7-1.1-1.6-1.4c-1-0.4-1.9-0.8-1.9-1.9c0-0.9,0.7-1.8,2.3-1.8c0.6,0,0.9,0,1.3,0.1l0.5-0.1v2.1h-0.5l-0.4-1.4
		c-0.3-0.1-0.7-0.2-1.1-0.2c-0.8,0-1.2,0.4-1.2,0.9c0,0.8,0.7,1,1.5,1.3c1.1,0.4,2,0.8,2,2C-53.5,37.6-54.4,38.6-56,38.6z"/>
	<path fill="#0071CE" d="M-50.8,38.6c-1.2,0-2.1-1-2.1-2.4c0-1.6,1.1-2.7,2.5-2.7c1,0,1.6,0.5,1.6,1c0,0.5-0.3,0.6-0.6,0.6
		c-0.4,0-0.7-0.5-0.6-1l0,0c-0.1-0.1-0.3-0.1-0.5-0.1c-0.7,0-1.3,0.6-1.3,1.8c0,1.2,0.6,2,1.5,2c0.5,0,0.9-0.2,1.3-0.6l0.2,0.1
		C-49.2,38.2-49.9,38.6-50.8,38.6z"/>
	<path fill="#0071CE" d="M-45.5,38.5l0-0.4l0.2,0c0.3,0,0.3-0.1,0.3-0.2v-2.1c0-1-0.3-1.3-0.9-1.3c-0.4,0-0.8,0.2-1,0.4v3
		c0,0.1,0,0.2,0.4,0.2l0.3,0l0,0.4h-2.4l0-0.4l0.3,0c0.2,0,0.3-0.1,0.3-0.2v-5.3c0-0.1,0-0.2-0.1-0.3l-0.6-0.3l0-0.3l1.8-0.5v3.2h0
		c0.6-0.4,1.1-0.8,1.7-0.8c0.3,0,0.7,0.1,0.9,0.3c0.3,0.3,0.4,0.7,0.4,1.2v2.7c0,0.1,0,0.1,0.4,0.2l0.2,0l0,0.4L-45.5,38.5
		L-45.5,38.5z"/>
	<path fill="#0071CE" d="M-40.8,38.6c-1.5,0-2.3-1.1-2.3-2.5c0-1.4,1.1-2.5,2.6-2.5s2.3,1.1,2.3,2.4C-38.3,37.4-39.3,38.6-40.8,38.6
		z M-39.9,34.4c-0.1-0.1-0.4-0.3-0.8-0.3c-0.7,0-1.2,0.7-1.2,1.8c0,0.9,0.1,1.6,0.5,2c0.1,0.1,0.4,0.3,0.8,0.3
		c0.7,0,1.2-0.7,1.2-1.8C-39.4,35.6-39.5,34.8-39.9,34.4z"/>
	<path fill="#0071CE" d="M-35.4,38.6c-1.5,0-2.3-1.1-2.3-2.5c0-1.4,1.1-2.5,2.6-2.5s2.3,1.1,2.3,2.4C-32.9,37.4-34,38.6-35.4,38.6z
		 M-34.6,34.4c-0.1-0.1-0.4-0.3-0.8-0.3c-0.7,0-1.2,0.7-1.2,1.8c0,0.9,0.1,1.6,0.5,2c0.1,0.1,0.4,0.3,0.8,0.3c0.7,0,1.2-0.7,1.2-1.8
		C-34.1,35.6-34.2,34.8-34.6,34.4z"/>
	<path fill="#0071CE" d="M-32.7,38.5l0-0.4l0.3,0c0.2,0,0.3-0.1,0.3-0.2v-5.3c0-0.1,0-0.2-0.1-0.3l-0.6-0.3l0-0.3l1.8-0.5v6.7
		c0,0.1,0,0.2,0.4,0.2l0.3,0l0,0.4L-32.7,38.5z"/>
	<path fill="#0071CE" d="M-26,38.6c-1.5,0-2.3-1.1-2.3-2.5c0-1.4,1.1-2.5,2.6-2.5c1.4,0,2.3,1.1,2.3,2.4
		C-23.5,37.4-24.6,38.6-26,38.6z M-25.1,34.4c-0.1-0.1-0.4-0.3-0.8-0.3c-0.7,0-1.2,0.7-1.2,1.8c0,0.9,0.1,1.6,0.5,2
		c0.1,0.1,0.4,0.3,0.8,0.3c0.7,0,1.2-0.7,1.2-1.8C-24.6,35.6-24.8,34.8-25.1,34.4z"/>
	<path fill="#0071CE" d="M-19.6,32.5c-0.3,0-0.6-0.2-0.8-0.8v0h-0.3c-0.4,0.2-0.7,0.8-0.7,1.8v0.4h1.4l-0.1,0.6h-1.4v3.5
		c0,0.1,0,0.2,0.4,0.2l0.5,0l0,0.4H-23l0-0.4l0.3,0c0.2,0,0.3-0.1,0.3-0.2v-3.5l-0.9,0l0-0.6h0.7v-0.2c0.1-1.4,1.1-2.4,2.3-2.4
		c0.6,0,1,0.3,1,0.8C-19.1,32.3-19.3,32.5-19.6,32.5z"/>
	<path fill="#0071CE" d="M-15,38.5h-2.7l0-0.4l0.4,0c0.3,0,0.4-0.1,0.4-0.2v-5.3c0-0.1,0-0.1-0.4-0.2l-0.4,0l0-0.4h2.8
		c1.8,0,2.5,0.6,2.5,1.5c0,0.9-0.8,1.5-1.7,1.7v0c1.3,0.1,1.9,0.8,1.9,1.6C-12.2,37.8-13.2,38.5-15,38.5z M-15.3,32.4h-0.5v2.6h0.6
		c0.9,0,1.4-0.6,1.4-1.2C-13.8,32.9-14.3,32.4-15.3,32.4z M-15.3,35.4h-0.4V38l0.7,0.1h0.2c0.8,0,1.4-0.5,1.4-1.3
		C-13.5,35.8-14.3,35.4-15.3,35.4z"/>
	<path fill="#0071CE" d="M-6.3,38.4l-1.8,0.2v-0.8h0c-0.6,0.4-1.1,0.8-1.7,0.8c-0.3,0-0.6-0.1-0.9-0.3c-0.3-0.3-0.4-0.7-0.4-1.2
		v-2.7c0-0.2-0.1-0.1-0.4-0.2l-0.2,0l0-0.4h1.8l0,2.7c0,1,0.3,1.3,0.9,1.3c0.4,0,0.8-0.2,1-0.4v-3c0-0.1,0-0.1-0.4-0.2l-0.3,0l0-0.4
		H-7v3.9c0,0.1,0,0.3,0.1,0.3l0.6,0.2L-6.3,38.4z"/>
	<path fill="#0071CE" d="M-4.2,38.6c-0.5,0-1.1-0.1-1.5-0.2l0-1.4h0.6l0.2,0.9c0.2,0.1,0.5,0.2,0.8,0.2c0.5,0,0.9-0.3,0.9-0.8
		c0-0.5-0.6-0.7-1.1-0.9C-5,36.2-5.7,35.9-5.7,35c0-0.8,0.6-1.4,1.8-1.4c0.5,0,0.8,0.1,1.1,0.2l0.4-0.1l0,1.5H-3l-0.2-0.9
		C-3.5,34.1-3.8,34-4,34c-0.5,0-0.8,0.3-0.8,0.7c0,0.5,0.4,0.6,1.1,0.9c0.7,0.3,1.5,0.6,1.5,1.5C-2.3,37.9-2.9,38.6-4.2,38.6z"/>
	<path fill="#0071CE" d="M-1.7,38.5l0-0.4l0.2,0c0.2,0,0.3-0.1,0.3-0.2v-2.6c0-0.7-0.1-0.8-0.4-0.9l-0.2,0v-0.3l1.7-0.5v4.3
		c0,0.1,0,0.2,0.4,0.2l0.2,0l0,0.4L-1.7,38.5L-1.7,38.5z M-0.7,32.8c-0.4,0-0.7-0.3-0.7-0.7c0-0.4,0.2-0.7,0.7-0.7S0,31.7,0,32.1
		C0,32.5-0.3,32.8-0.7,32.8z"/>
	<path fill="#0071CE" d="M4.2,38.5l0-0.4l0.2,0c0.3,0,0.3-0.1,0.3-0.2v-2.1c0-1-0.3-1.3-0.9-1.3c-0.4,0-0.8,0.2-1,0.4v3
		c0,0.1,0,0.2,0.4,0.2l0.3,0l0,0.4H1.2l0-0.4l0.3,0c0.2,0,0.3-0.1,0.3-0.2v-2.6c0-0.7-0.1-0.8-0.4-0.9l-0.2,0v-0.3l1.7-0.5v0.8h0
		c0.6-0.4,1.1-0.8,1.7-0.8c0.3,0,0.6,0.1,0.9,0.3c0.3,0.3,0.4,0.7,0.4,1.2v2.7c0,0.1,0,0.1,0.4,0.2l0.2,0l0,0.4L4.2,38.5z"/>
	<path fill="#0071CE" d="M8.8,38.6c-1.2,0-2.1-1-2.1-2.4c0-1.6,1.1-2.7,2.5-2.7c1,0,1.7,0.6,1.7,1.6c0,0.2,0,0.4,0,0.6l-3,0v0.1
		c0,1.2,0.7,1.9,1.6,1.9c0.5,0,0.9-0.2,1.3-0.6l0.2,0.1C10.4,38.2,9.7,38.6,8.8,38.6z M8.9,34c-0.5,0-1,0.5-1.2,1.4h2
		C9.8,34.6,9.4,34,8.9,34z"/>
	<path fill="#0071CE" d="M13,38.6c-0.5,0-1.1-0.1-1.5-0.2l0-1.4h0.6l0.2,0.9c0.2,0.1,0.5,0.2,0.8,0.2c0.5,0,0.9-0.3,0.9-0.8
		c0-0.5-0.6-0.7-1.1-0.9c-0.7-0.3-1.4-0.6-1.4-1.5c0-0.8,0.6-1.4,1.8-1.4c0.5,0,0.8,0.1,1.1,0.2l0.4-0.1l0,1.5h-0.6L14,34.2
		c-0.2-0.1-0.5-0.2-0.8-0.2c-0.5,0-0.8,0.3-0.8,0.7c0,0.5,0.4,0.6,1.1,0.9c0.7,0.3,1.5,0.6,1.5,1.5C15,37.9,14.3,38.6,13,38.6z"/>
	<path fill="#0071CE" d="M17.2,38.6c-0.5,0-1.1-0.1-1.5-0.2l0-1.4h0.6l0.2,0.9c0.2,0.1,0.5,0.2,0.8,0.2c0.5,0,0.9-0.3,0.9-0.8
		c0-0.5-0.6-0.7-1.1-0.9c-0.7-0.3-1.4-0.6-1.4-1.5c0-0.8,0.6-1.4,1.8-1.4c0.5,0,0.8,0.1,1.1,0.2l0.4-0.1l0,1.5h-0.6l-0.2-0.9
		C18,34.1,17.6,34,17.4,34c-0.5,0-0.8,0.3-0.8,0.7c0,0.5,0.4,0.6,1.1,0.9c0.7,0.3,1.5,0.6,1.5,1.5C19.1,37.9,18.4,38.6,17.2,38.6z"
		/>
	<path fill="#0071CE" d="M-74.5,44.9l-0.5,0.1c-0.4,0-0.4,0.2-0.4,2.1v1.8c0,1.4-0.9,2.4-2.6,2.4c-1.6,0-2.6-0.8-2.6-2.3v-3.8
		c0-0.1,0-0.1-0.4-0.2l-0.4,0l0-0.4h2.8l0,0.4l-0.4,0c-0.3,0-0.3,0.1-0.3,0.2v3.5c0,1.4,0.7,1.9,1.8,1.9c1.1,0,1.7-0.7,1.7-1.8v-1.7
		c0-1.9-0.1-2-0.4-2.1l-0.5-0.1l0-0.4h2.4L-74.5,44.9z"/>
	<path fill="#0071CE" d="M-71.5,51l0-0.4l0.2,0c0.3,0,0.3-0.1,0.3-0.2v-2.1c0-1-0.3-1.3-0.9-1.3c-0.4,0-0.8,0.2-1,0.4v3
		c0,0.1,0,0.2,0.4,0.2l0.3,0l0,0.4h-2.4l0-0.4l0.3,0c0.2,0,0.3-0.1,0.3-0.2v-2.6c0-0.7-0.1-0.8-0.4-0.9l-0.2,0v-0.3l1.7-0.5V47h0
		c0.6-0.4,1.1-0.8,1.7-0.8c0.3,0,0.6,0.1,0.9,0.3c0.3,0.3,0.4,0.7,0.4,1.2v2.7c0,0.1,0,0.1,0.4,0.2l0.2,0l0,0.4L-71.5,51z"/>
	<path fill="#0071CE" d="M-68.9,51l0-0.4l0.2,0c0.2,0,0.3-0.1,0.3-0.2v-2.6c0-0.7-0.1-0.8-0.4-0.9l-0.2,0v-0.3l1.7-0.5v4.3
		c0,0.1,0,0.2,0.4,0.2l0.3,0l0,0.4L-68.9,51L-68.9,51z M-67.9,45.4c-0.4,0-0.7-0.3-0.7-0.7s0.2-0.7,0.7-0.7c0.4,0,0.7,0.3,0.7,0.7
		S-67.5,45.4-67.9,45.4z"/>
	<path fill="#0071CE" d="M-61.3,46.7l-0.3,0c-0.3,0-0.4,0.2-0.6,0.7l-1.4,3.6h-0.7l-1.6-3.9c-0.1-0.2-0.2-0.3-0.5-0.4l-0.2-0.1
		l0-0.4h2.5l0,0.4l-0.3,0.1c-0.2,0-0.3,0.1-0.2,0.4l1.1,2.8l0.9-2.6c0.1-0.4,0.1-0.6-0.2-0.6l-0.3-0.1l0-0.4h1.9L-61.3,46.7z"/>
	<path fill="#0071CE" d="M-59.4,51.2c-1.2,0-2.1-1-2.1-2.4c0-1.6,1.1-2.7,2.5-2.7c1,0,1.7,0.6,1.7,1.6c0,0.2,0,0.4,0,0.6l-3,0v0.1
		c0,1.2,0.7,1.9,1.6,1.9c0.5,0,0.9-0.2,1.3-0.6l0.2,0.1C-57.8,50.8-58.5,51.2-59.4,51.2z M-59.3,46.6c-0.5,0-1,0.5-1.2,1.4h2
		C-58.4,47.1-58.8,46.6-59.3,46.6z"/>
	<path fill="#0071CE" d="M-53.7,47.5c-0.3,0-0.5-0.2-0.6-0.4c-0.3,0.2-0.7,0.5-0.9,1v2.3c0,0.1,0,0.2,0.4,0.2l0.4,0l0,0.4h-2.5
		l0-0.4l0.3,0c0.2,0,0.3-0.1,0.3-0.2v-2.6c0-0.7-0.1-0.8-0.4-0.9l-0.2,0v-0.3l1.7-0.5v1.3h0c0.5-0.9,0.9-1.3,1.4-1.3
		c0.4,0,0.7,0.3,0.7,0.7C-53.1,47.2-53.3,47.5-53.7,47.5z"/>
	<path fill="#0071CE" d="M-51.2,51.2c-0.5,0-1.1-0.1-1.5-0.2l0-1.4h0.6l0.2,0.9c0.2,0.1,0.5,0.2,0.8,0.2c0.5,0,0.9-0.3,0.9-0.8
		c0-0.5-0.6-0.7-1.1-0.9c-0.7-0.3-1.4-0.6-1.4-1.5c0-0.8,0.6-1.4,1.8-1.4c0.5,0,0.8,0.1,1.1,0.2l0.4-0.1l0,1.5h-0.6l-0.2-0.9
		c-0.2-0.1-0.5-0.2-0.8-0.2c-0.5,0-0.8,0.3-0.8,0.7c0,0.5,0.4,0.6,1.1,0.9c0.7,0.3,1.5,0.6,1.5,1.5C-49.3,50.5-50,51.2-51.2,51.2z"
		/>
	<path fill="#0071CE" d="M-48.8,51l0-0.4l0.3,0c0.2,0,0.3-0.1,0.3-0.2v-2.6c0-0.7-0.1-0.8-0.4-0.9l-0.2,0v-0.3l1.7-0.5v4.3
		c0,0.1,0,0.2,0.4,0.2l0.2,0l0,0.4L-48.8,51L-48.8,51z M-47.7,45.4c-0.4,0-0.7-0.3-0.7-0.7s0.2-0.7,0.7-0.7c0.4,0,0.7,0.3,0.7,0.7
		S-47.3,45.4-47.7,45.4z"/>
	<path fill="#0071CE" d="M-44.2,51.2c-0.8,0-1.3-0.4-1.3-1.5l0-2.7l-0.8,0v-0.3l1.4-1.2l0.4,0v0.9h1.7l-0.1,0.6h-1.7l0,2.5
		c0,0.8,0.3,1,0.9,1c0.3,0,0.6-0.1,0.9-0.2l0,0.3C-43.1,50.9-43.7,51.2-44.2,51.2z"/>
	<path fill="#0071CE" d="M-37.4,46.7l-0.3,0c-0.3,0-0.4,0.2-0.6,0.7l-1.2,3.2l-0.6,1.7c-0.3,0.9-0.6,1.4-1.2,1.4
		c-0.4,0-0.8-0.2-0.8-0.6c0-0.3,0.2-0.6,0.6-0.6c0.3,0,0.5,0.2,0.7,0.4c0.1-0.1,0.2-0.3,0.4-0.7l0.3-1v0l-1.8-4
		c-0.1-0.2-0.2-0.3-0.5-0.4l-0.2-0.1l0-0.4h2.4l0,0.4l-0.3,0.1c-0.2,0-0.3,0.1-0.2,0.4l1.2,2.7l0.9-2.4c0.1-0.4,0.1-0.6-0.2-0.6
		l-0.3-0.1l0-0.4h2L-37.4,46.7z"/>
	<path fill="#0071CE" d="M-33.2,51.2c-1.5,0-2.3-1.1-2.3-2.5c0-1.4,1.1-2.5,2.6-2.5s2.3,1.1,2.3,2.4C-30.7,50-31.8,51.2-33.2,51.2z
		 M-32.3,47c-0.1-0.1-0.4-0.3-0.8-0.3c-0.7,0-1.2,0.7-1.2,1.8c0,0.9,0.1,1.6,0.5,2c0.1,0.1,0.4,0.3,0.8,0.3c0.7,0,1.2-0.7,1.2-1.8
		C-31.8,48.2-32,47.4-32.3,47z"/>
	<path fill="#0071CE" d="M-26.9,45.1c-0.3,0-0.6-0.2-0.8-0.8v0h-0.3c-0.4,0.2-0.7,0.8-0.7,1.8v0.4h1.4l-0.1,0.6h-1.4v3.5
		c0,0.1,0,0.2,0.4,0.2l0.5,0l0,0.4h-2.6l0-0.4l0.3,0c0.2,0,0.3-0.1,0.3-0.2v-3.5l-0.9,0l0-0.6h0.7v-0.2c0.1-1.4,1.1-2.4,2.3-2.4
		c0.6,0,1,0.3,1,0.8C-26.3,44.9-26.5,45.1-26.9,45.1z"/>
	<path fill="#0071CE" d="M-18.9,51l-0.6-0.1c-0.4,0.1-1,0.3-1.7,0.3c-2.1,0-3.6-1.2-3.6-3.3c0-2.1,1.6-3.5,3.7-3.5
		c0.6,0,1.2,0.1,1.5,0.2l0.9-0.2v2.2h-0.6l-0.3-1.4c-0.4-0.2-0.8-0.4-1.4-0.4c-1.5,0-2.4,1.2-2.4,2.9c0,1.8,0.9,3,2.5,3
		c0.4,0,0.9-0.1,1.2-0.3l0.5-1.5h0.6L-18.9,51z"/>
	<path fill="#0071CE" d="M-14.5,51.2c-0.4,0-0.7-0.2-0.8-0.8h0c-0.4,0.4-0.8,0.8-1.3,0.8c-0.7,0-1.3-0.5-1.3-1.2
		c0-0.9,0.9-1.4,2.7-1.8v-0.1c0-1-0.4-1.3-1-1.3c-0.3,0-0.8,0.1-0.8,0.2c0,0,0.2,0.2,0.2,0.6c0,0.2-0.2,0.5-0.6,0.5
		s-0.6-0.2-0.6-0.5c0-0.6,1.2-1.3,2.1-1.3c1.2,0,1.7,0.5,1.6,2.1l-0.1,1.8c0,0.3,0,0.4,0.2,0.4c0.1,0,0.3-0.1,0.5-0.2l0.2,0.2
		C-13.7,50.9-14.2,51.2-14.5,51.2z M-15.3,48.6c-1.3,0.3-1.6,0.8-1.6,1.2c0,0.5,0.3,0.7,0.7,0.7c0.3,0,0.6-0.2,0.9-0.4L-15.3,48.6z"
		/>
	<path fill="#0071CE" d="M-13.1,51l0-0.4l0.3,0c0.2,0,0.3-0.1,0.3-0.2v-5.3c0-0.1,0-0.2-0.1-0.3l-0.6-0.3l0-0.3l1.8-0.5v6.7
		c0,0.1,0,0.2,0.4,0.2l0.3,0l0,0.4L-13.1,51L-13.1,51z"/>
	<path fill="#0071CE" d="M-10.2,51l0-0.4l0.2,0c0.2,0,0.3-0.1,0.3-0.2v-2.6c0-0.7-0.1-0.8-0.4-0.9l-0.2,0v-0.3l1.7-0.5v4.3
		c0,0.1,0,0.2,0.4,0.2l0.3,0l0,0.4L-10.2,51L-10.2,51z M-9.1,45.4c-0.4,0-0.7-0.3-0.7-0.7S-9.5,44-9.1,44c0.4,0,0.7,0.3,0.7,0.7
		C-8.4,45.1-8.7,45.4-9.1,45.4z"/>
	<path fill="#0071CE" d="M-3.8,45.1c-0.3,0-0.6-0.2-0.8-0.8v0h-0.3c-0.4,0.2-0.7,0.8-0.7,1.8v0.4h1.4L-4.2,47h-1.4v3.5
		c0,0.1,0,0.2,0.4,0.2l0.5,0l0,0.4h-2.6l0-0.4l0.3,0c0.2,0,0.3-0.1,0.3-0.2v-3.5l-0.9,0l0-0.6h0.7v-0.2c0.1-1.4,1.1-2.4,2.3-2.4
		c0.6,0,1,0.3,1,0.8C-3.2,44.9-3.5,45.1-3.8,45.1z"/>
	<path fill="#0071CE" d="M-1.8,51.2c-1.5,0-2.3-1.1-2.3-2.5c0-1.4,1.1-2.5,2.6-2.5s2.3,1.1,2.3,2.4C0.8,50-0.3,51.2-1.8,51.2z
		 M-0.9,47c-0.1-0.1-0.4-0.3-0.8-0.3c-0.7,0-1.2,0.7-1.2,1.8c0,0.9,0.1,1.6,0.5,2c0.1,0.1,0.4,0.3,0.8,0.3c0.7,0,1.2-0.7,1.2-1.8
		C-0.4,48.2-0.6,47.4-0.9,47z"/>
	<path fill="#0071CE" d="M4.4,47.5c-0.3,0-0.5-0.2-0.6-0.4c-0.3,0.2-0.7,0.5-0.9,1v2.3c0,0.1,0,0.2,0.4,0.2l0.4,0l0,0.4H1.1l0-0.4
		l0.3,0c0.2,0,0.3-0.1,0.3-0.2v-2.6c0-0.7-0.1-0.8-0.4-0.9l-0.2,0v-0.3l1.7-0.5v1.3h0c0.5-0.9,0.9-1.3,1.4-1.3
		c0.4,0,0.7,0.3,0.7,0.7C5,47.2,4.8,47.5,4.4,47.5z"/>
	<path fill="#0071CE" d="M8.4,51l0-0.4l0.2,0C9,50.6,9,50.5,9,50.4v-2.1c0-1-0.3-1.3-0.9-1.3c-0.4,0-0.8,0.2-1,0.4v3
		c0,0.1,0,0.2,0.4,0.2l0.3,0l0,0.4H5.4l0-0.4l0.3,0c0.2,0,0.3-0.1,0.3-0.2v-2.6c0-0.7-0.1-0.8-0.4-0.9l-0.2,0v-0.3l1.7-0.5V47h0
		c0.6-0.4,1.1-0.8,1.7-0.8c0.3,0,0.6,0.1,0.9,0.3c0.3,0.3,0.4,0.7,0.4,1.2v2.7c0,0.1,0,0.1,0.4,0.2l0.2,0l0,0.4L8.4,51z"/>
	<path fill="#0071CE" d="M11.2,51l0-0.4l0.3,0c0.2,0,0.3-0.1,0.3-0.2v-2.6c0-0.7-0.1-0.8-0.4-0.9l-0.2,0v-0.3l1.7-0.5v4.3
		c0,0.1,0,0.2,0.4,0.2l0.3,0l0,0.4L11.2,51L11.2,51z M12.3,45.4c-0.4,0-0.7-0.3-0.7-0.7s0.2-0.7,0.7-0.7c0.4,0,0.7,0.3,0.7,0.7
		C12.9,45.1,12.7,45.4,12.3,45.4z"/>
	<path fill="#0071CE" d="M17.6,51.2c-0.4,0-0.7-0.2-0.8-0.8h0c-0.4,0.4-0.8,0.8-1.3,0.8c-0.7,0-1.3-0.5-1.3-1.2
		c0-0.9,0.9-1.4,2.7-1.8v-0.1c0-1-0.4-1.3-1-1.3c-0.3,0-0.8,0.1-0.8,0.2c0,0,0.2,0.2,0.2,0.6c0,0.2-0.2,0.5-0.6,0.5
		s-0.6-0.2-0.6-0.5c0-0.6,1.2-1.3,2.1-1.3c1.2,0,1.7,0.5,1.6,2.1l-0.1,1.8c0,0.3,0,0.4,0.2,0.4c0.1,0,0.3-0.1,0.5-0.2l0.2,0.2
		C18.4,50.9,18,51.2,17.6,51.2z M16.8,48.6c-1.3,0.3-1.6,0.8-1.6,1.2c0,0.5,0.3,0.7,0.7,0.7c0.3,0,0.6-0.2,0.9-0.4L16.8,48.6z"/>
	<path fill="#0071CE" d="M23.8,51H21l0-0.4l0.4,0c0.3,0,0.4-0.1,0.4-0.2v-5.3c0-0.1,0-0.1-0.4-0.2l-0.4,0l0-0.4h2.8
		c1.8,0,2.5,0.6,2.5,1.5c0,0.9-0.8,1.5-1.7,1.7v0c1.3,0.1,1.9,0.8,1.9,1.6C26.6,50.4,25.6,51,23.8,51z M23.5,45h-0.5v2.6h0.6
		c0.9,0,1.4-0.6,1.4-1.2C25.1,45.5,24.6,45,23.5,45z M23.5,47.9h-0.4v2.6l0.7,0.1h0.2c0.8,0,1.4-0.5,1.4-1.3
		C25.3,48.4,24.5,47.9,23.5,47.9z"/>
	<path fill="#0071CE" d="M29.4,51.2c-1.2,0-2.1-1-2.1-2.4c0-1.6,1.1-2.7,2.5-2.7c1,0,1.7,0.6,1.7,1.6c0,0.2,0,0.4,0,0.6l-3,0v0.1
		c0,1.2,0.7,1.9,1.6,1.9c0.5,0,0.9-0.2,1.3-0.6l0.2,0.1C31,50.8,30.3,51.2,29.4,51.2z M29.5,46.6c-0.5,0-1,0.5-1.2,1.4h2
		C30.4,47.1,30,46.6,29.5,46.6z"/>
	<path fill="#0071CE" d="M35.2,47.5c-0.3,0-0.5-0.2-0.6-0.4c-0.3,0.2-0.7,0.5-0.9,1v2.3c0,0.1,0,0.2,0.4,0.2l0.4,0l0,0.4h-2.5l0-0.4
		l0.3,0c0.2,0,0.3-0.1,0.3-0.2v-2.6c0-0.7-0.1-0.8-0.4-0.9l-0.2,0v-0.3l1.7-0.5v1.3h0c0.5-0.9,0.9-1.3,1.4-1.3
		c0.4,0,0.7,0.3,0.7,0.7C35.8,47.2,35.6,47.5,35.2,47.5z"/>
	<path fill="#0071CE" d="M39.2,51l-0.5-0.9l-0.8-1.3l-0.4,0.4v1.3c0,0.1,0,0.1,0.4,0.2l0.2,0l0,0.4h-2.3l0-0.4l0.3,0
		c0.2,0,0.3-0.1,0.3-0.2v-5.3c0-0.1,0-0.2-0.1-0.3l-0.6-0.3l0-0.3l1.8-0.5v4.8l0.6-0.5c0.5-0.5,0.9-0.8,0.9-1c0-0.2-0.2-0.2-0.4-0.3
		h-0.1l0-0.4h2.3l0,0.4l-0.2,0c-0.4,0-0.7,0.3-1.5,1l-0.4,0.4l1.4,2c0.2,0.3,0.3,0.4,0.5,0.5l0.3,0l0,0.4L39.2,51L39.2,51z"/>
	<path fill="#0071CE" d="M43.3,51.2c-1.2,0-2.1-1-2.1-2.4c0-1.6,1.1-2.7,2.5-2.7c1,0,1.7,0.6,1.7,1.6c0,0.2,0,0.4,0,0.6l-3,0v0.1
		c0,1.2,0.7,1.9,1.6,1.9c0.5,0,0.9-0.2,1.3-0.6l0.2,0.1C44.9,50.8,44.2,51.2,43.3,51.2z M43.4,46.6c-0.5,0-1,0.5-1.2,1.4h2
		C44.3,47.1,44,46.6,43.4,46.6z"/>
	<path fill="#0071CE" d="M45.6,51l0-0.4l0.3,0c0.2,0,0.3-0.1,0.3-0.2v-5.3c0-0.1,0-0.2-0.1-0.3l-0.6-0.3l0-0.3l1.8-0.5v6.7
		c0,0.1,0,0.2,0.4,0.2l0.2,0l0,0.4L45.6,51L45.6,51z"/>
	<path fill="#0071CE" d="M50.5,51.2c-1.2,0-2.1-1-2.1-2.4c0-1.6,1.1-2.7,2.5-2.7c1,0,1.7,0.6,1.7,1.6c0,0.2,0,0.4,0,0.6l-3,0v0.1
		c0,1.2,0.7,1.9,1.6,1.9c0.5,0,0.9-0.2,1.3-0.6l0.2,0.1C52.2,50.8,51.5,51.2,50.5,51.2z M50.6,46.6c-0.5,0-1,0.5-1.2,1.4h2
		C51.5,47.1,51.2,46.6,50.6,46.6z"/>
	<path fill="#0071CE" d="M58.1,46.7l-0.3,0c-0.3,0-0.4,0.2-0.6,0.7L56,50.7l-0.6,1.7c-0.3,0.9-0.6,1.4-1.2,1.4
		c-0.4,0-0.8-0.2-0.8-0.6c0-0.3,0.2-0.6,0.6-0.6c0.3,0,0.5,0.2,0.7,0.4c0.1-0.1,0.2-0.3,0.4-0.7l0.3-1v0l-1.8-4
		c-0.1-0.2-0.2-0.3-0.5-0.4l-0.2-0.1l0-0.4h2.4l0,0.4l-0.3,0.1c-0.2,0-0.3,0.1-0.2,0.4l1.2,2.7l0.9-2.4c0.1-0.4,0.1-0.6-0.2-0.6
		l-0.3-0.1l0-0.4h2L58.1,46.7z"/>
</g>
<g>
	<path fill="#0071CE" d="M114.8,2.7c-0.9-4.3-3.8-7.2-8.3-7.2c-4.3,0-7.6,3-7.6,7.3c0,7.4,10.6,9.2,10.6,13.9c0,1.5-1,2.4-2.5,2.4
		c-2.6,0-3.4-2-3.7-4.3l-5,1.4c0.9,4.7,3.7,7.6,8.7,7.6c4.6,0,8-2.5,8-7.3c0-8.1-10.6-9.8-10.6-14.1c0-1.4,1-2.2,2.5-2.2
		c1.8,0,2.8,1.2,3.2,3.4L114.8,2.7z M91.3,16.5c-0.9,1.4-2.2,2.5-3.8,2.5c-1.7,0-2.7-0.7-2.7-2.5c0-2.4,1.3-4.3,6.4-7.2V16.5z
		 M85.3,4c0.1-2.3,0.7-3.8,3.2-3.8c1.9,0,2.8,1.2,2.8,3.5v1.6c-8.1,3.1-12.1,6.4-12.1,12.4c0,3.5,1.9,6.1,5.8,6.1
		c2.7,0,4.5-0.9,6.6-2.7c0,0.7,0.2,1.4,0.3,2.1h5.4c-0.1-0.9-0.3-2-0.3-2.9V2.9c0-5-3-7.4-8.2-7.4c-5.3,0-8.8,3-9.1,8.5L85.3,4z
		 M71.9,16.5C71,17.9,69.7,19,68.1,19c-1.7,0-2.7-0.7-2.7-2.5c0-2.4,1.3-4.3,6.4-7.2V16.5z M65.9,4c0.1-2.3,0.7-3.8,3.2-3.8
		c1.9,0,2.8,1.2,2.8,3.5v1.6c-8.1,3.1-12.1,6.4-12.1,12.4c0,3.5,1.9,6.1,5.8,6.1c2.7,0,4.5-0.9,6.6-2.7c0,0.7,0.2,1.4,0.3,2.1h5.4
		c-0.1-0.9-0.3-2-0.3-2.9V2.9c0-5-3-7.4-8.2-7.4c-5.3,0-8.8,3-9.1,8.5L65.9,4z M45.1,23.2V7h6.7v16.2h6.3v-36.5h-6.3V1.5h-6.7v-14.9
		h-6.3v36.5H45.1z"/>
	<path fill="#003056" d="M21.1-3.1l7,26.1c-0.7,3.7-2.6,5.8-5.4,5.8h-1.1v3h1.9c4.4,0,6.9-3.4,8.3-9.1l6-25.8H34L30,17h-0.1l-5-20.1
		H21.1z M21.2,10.6V8.9c0-7.6-2.5-12.6-8.1-12.6C7.7-3.6,5.1,0.5,5.1,10c0,9.5,2.5,13.6,8.1,13.6c4.8,0,7.8-3.6,8.3-7.6l-3.5-0.4
		c-0.5,2.4-1.6,5-4.4,5c-3.5,0-4.9-2.1-4.9-8.5v-1.5L21.2,10.6z M8.8,7.6c0-6.3,1.8-8.2,4.4-8.2c3.3,0,4.3,2.5,4.4,8.2H8.8z M0,23.2
		h3.6v-36.5H0V23.2z M-1.6,10.6V8.9c0-7.6-2.5-12.6-8.1-12.6c-5.5,0-8.1,4.2-8.1,13.6c0,9.5,2.5,13.6,8.1,13.6
		c4.8,0,7.8-3.6,8.3-7.6l-3.5-0.4c-0.5,2.4-1.6,5-4.4,5c-3.5,0-4.9-2.1-4.9-8.5v-1.5L-1.6,10.6z M-14,7.6c0-6.3,1.8-8.2,4.4-8.2
		c3.3,0,4.3,2.5,4.4,8.2H-14z M-32.8,23.2h3.6v-7.8l3.5-6.5h0.1l4.7,14.3h3.7l-6.1-17.9l4.9-8.4H-22l-7,12.8h-0.1v-23.1h-3.6
		L-32.8,23.2L-32.8,23.2z M-44.8,23.2h3.6V4.5c2-3.7,4-4.6,6.8-4.6v-3.5c-2.9,0-4.5,0.5-6.7,3.7h-0.1v-3.2h-3.6V23.2z M-45.9,10.6
		V8.9c0-7.6-2.5-12.6-8.1-12.6C-59.4-3.6-62,0.5-62,10c0,9.5,2.5,13.6,8.1,13.6c4.8,0,7.8-3.6,8.3-7.6l-3.5-0.4
		c-0.5,2.4-1.6,5-4.4,5c-3.5,0-4.9-2.1-4.9-8.5v-1.5L-45.9,10.6z M-58.4,7.6c0-6.3,1.8-8.2,4.4-8.2c3.3,0,4.3,2.5,4.4,8.2H-58.4z
		 M-77.7-10h3.9c4.6,0,6.5,1.5,6.5,5.7c0,5-2.5,6.7-8.2,6.7h-2.2V-10z M-77.7,5.7h3.9c5.2,0,7.3,2.6,7.3,7.4c0,4.7-2.5,6.8-7.3,6.8
		h-3.9V5.7z M-81.7,23.2h7.4c8,0,11.7-3.3,11.7-10.1c0-4.5-2-8.1-6.4-9.2V3.8c3.9-1.2,5.5-4.5,5.5-8.1c0-5.4-3.1-9-8.6-9h-9.7V23.2z
		"/>
</g>
</svg>
